<?xml version="1.0" encoding="UTF-8" standalone="no"?>
<!DOCTYPE svg PUBLIC "-//W3C//DTD SVG 1.1//EN"
 "http://www.w3.org/Graphics/SVG/1.1/DTD/svg11.dtd">
<!-- Generated by graphviz version 9.0.0 (20230911.1827)
 -->
<!-- Pages: 1 -->
<svg width="724pt" height="260pt"
 viewBox="0.00 0.00 724.39 260.00" xmlns="http://www.w3.org/2000/svg" xmlns:xlink="http://www.w3.org/1999/xlink">
<g id="graph0" class="graph" transform="scale(1 1) rotate(0) translate(4 256)">
<polygon fill="white" stroke="none" points="-4,4 -4,-256 720.39,-256 720.39,4 -4,4"/>
<!-- [root] aws_iam_user.lb (expand) -->
<g id="node1" class="node">
<title>[root] aws_iam_user.lb (expand)</title>
<polygon fill="none" stroke="black" points="347.98,-108 240.48,-108 240.48,-72 347.98,-72 347.98,-108"/>
<text text-anchor="middle" x="294.23" y="-84.95" font-family="Times,serif" font-size="14.00">aws_iam_user.lb</text>
</g>
<!-- [root] provider[&quot;registry.terraform.io/hashicorp/aws&quot;] -->
<g id="node2" class="node">
<title>[root] provider[&quot;registry.terraform.io/hashicorp/aws&quot;]</title>
<polygon fill="none" stroke="black" points="294.23,-36 29.8,-18 294.23,0 558.66,-18 294.23,-36"/>
<text text-anchor="middle" x="294.23" y="-12.95" font-family="Times,serif" font-size="14.00">provider[&quot;registry.terraform.io/hashicorp/aws&quot;]</text>
</g>
<!-- [root] aws_iam_user.lb (expand)&#45;&gt;[root] provider[&quot;registry.terraform.io/hashicorp/aws&quot;] -->
<g id="edge1" class="edge">
<title>[root] aws_iam_user.lb (expand)&#45;&gt;[root] provider[&quot;registry.terraform.io/hashicorp/aws&quot;]</title>
<path fill="none" stroke="black" d="M294.23,-71.7C294.23,-64.41 294.23,-55.73 294.23,-47.54"/>
<polygon fill="black" stroke="black" points="297.73,-47.62 294.23,-37.62 290.73,-47.62 297.73,-47.62"/>
</g>
<!-- [root] output.arns (expand) -->
<g id="node3" class="node">
<title>[root] output.arns (expand)</title>
<ellipse fill="none" stroke="black" cx="111.23" cy="-162" rx="111.23" ry="18"/>
<text text-anchor="middle" x="111.23" y="-156.95" font-family="Times,serif" font-size="14.00">[root] output.arns (expand)</text>
</g>
<!-- [root] output.arns (expand)&#45;&gt;[root] aws_iam_user.lb (expand) -->
<g id="edge2" class="edge">
<title>[root] output.arns (expand)&#45;&gt;[root] aws_iam_user.lb (expand)</title>
<path fill="none" stroke="black" d="M153.22,-144.94C178.37,-135.32 210.67,-122.97 238,-112.51"/>
<polygon fill="black" stroke="black" points="239.09,-115.84 247.18,-109 236.59,-109.3 239.09,-115.84"/>
</g>
<!-- [root] provider[&quot;registry.terraform.io/hashicorp/aws&quot;] (close) -->
<g id="node4" class="node">
<title>[root] provider[&quot;registry.terraform.io/hashicorp/aws&quot;] (close)</title>
<ellipse fill="none" stroke="black" cx="478.23" cy="-162" rx="238.16" ry="18"/>
<text text-anchor="middle" x="478.23" y="-156.95" font-family="Times,serif" font-size="14.00">[root] provider[&quot;registry.terraform.io/hashicorp/aws&quot;] (close)</text>
</g>
<!-- [root] provider[&quot;registry.terraform.io/hashicorp/aws&quot;] (close)&#45;&gt;[root] aws_iam_user.lb (expand) -->
<g id="edge3" class="edge">
<title>[root] provider[&quot;registry.terraform.io/hashicorp/aws&quot;] (close)&#45;&gt;[root] aws_iam_user.lb (expand)</title>
<path fill="none" stroke="black" d="M433.22,-143.88C408.35,-134.41 377.21,-122.57 350.72,-112.49"/>
<polygon fill="black" stroke="black" points="352.06,-109.26 341.47,-108.97 349.57,-115.8 352.06,-109.26"/>
</g>
<!-- [root] root -->
<g id="node5" class="node">
<title>[root] root</title>
<ellipse fill="none" stroke="black" cx="294.23" cy="-234" rx="49.3" ry="18"/>
<text text-anchor="middle" x="294.23" y="-228.95" font-family="Times,serif" font-size="14.00">[root] root</text>
</g>
<!-- [root] root&#45;&gt;[root] output.arns (expand) -->
<g id="edge4" class="edge">
<title>[root] root&#45;&gt;[root] output.arns (expand)</title>
<path fill="none" stroke="black" d="M261.09,-220.32C234.01,-209.96 195.21,-195.12 163.87,-183.14"/>
<polygon fill="black" stroke="black" points="165.14,-179.87 154.55,-179.57 162.64,-186.41 165.14,-179.87"/>
</g>
<!-- [root] root&#45;&gt;[root] provider[&quot;registry.terraform.io/hashicorp/aws&quot;] (close) -->
<g id="edge5" class="edge">
<title>[root] root&#45;&gt;[root] provider[&quot;registry.terraform.io/hashicorp/aws&quot;] (close)</title>
<path fill="none" stroke="black" d="M327.55,-220.32C354.05,-210.24 391.69,-195.92 422.72,-184.12"/>
<polygon fill="black" stroke="black" points="423.87,-187.43 431.97,-180.6 421.38,-180.88 423.87,-187.43"/>
</g>
</g>
</svg>
