<?xml version="1.0" encoding="UTF-8" standalone="no"?>
<!DOCTYPE svg PUBLIC "-//W3C//DTD SVG 1.1//EN"
 "http://www.w3.org/Graphics/SVG/1.1/DTD/svg11.dtd">
<!-- Generated by graphviz version 9.0.0 (20230911.1827)
 -->
<!-- Pages: 1 -->
<svg width="1264pt" height="404pt"
 viewBox="0.00 0.00 1263.95 404.00" xmlns="http://www.w3.org/2000/svg" xmlns:xlink="http://www.w3.org/1999/xlink">
<g id="graph0" class="graph" transform="scale(1 1) rotate(0) translate(4 400)">
<polygon fill="white" stroke="none" points="-4,4 -4,-400 1259.95,-400 1259.95,4 -4,4"/>
<!-- [root] aws_instance.instance&#45;1 (expand) -->
<g id="node1" class="node">
<title>[root] aws_instance.instance&#45;1 (expand)</title>
<polygon fill="none" stroke="black" points="560.2,-252 412.95,-252 412.95,-216 560.2,-216 560.2,-252"/>
<text text-anchor="middle" x="486.58" y="-228.95" font-family="Times,serif" font-size="14.00">aws_instance.instance&#45;1</text>
</g>
<!-- [root] local.ami (expand) -->
<g id="node10" class="node">
<title>[root] local.ami (expand)</title>
<ellipse fill="none" stroke="black" cx="104.58" cy="-162" rx="104.58" ry="18"/>
<text text-anchor="middle" x="104.58" y="-156.95" font-family="Times,serif" font-size="14.00">[root] local.ami (expand)</text>
</g>
<!-- [root] aws_instance.instance&#45;1 (expand)&#45;&gt;[root] local.ami (expand) -->
<g id="edge1" class="edge">
<title>[root] aws_instance.instance&#45;1 (expand)&#45;&gt;[root] local.ami (expand)</title>
<path fill="none" stroke="black" d="M412.47,-219.42C347.22,-207.46 252.39,-190.08 185.24,-177.78"/>
<polygon fill="black" stroke="black" points="186.25,-174.41 175.78,-176.05 184.99,-181.29 186.25,-174.41"/>
</g>
<!-- [root] local.instance_types (expand) -->
<g id="node11" class="node">
<title>[root] local.instance_types (expand)</title>
<ellipse fill="none" stroke="black" cx="371.58" cy="-162" rx="144.5" ry="18"/>
<text text-anchor="middle" x="371.58" y="-156.95" font-family="Times,serif" font-size="14.00">[root] local.instance_types (expand)</text>
</g>
<!-- [root] aws_instance.instance&#45;1 (expand)&#45;&gt;[root] local.instance_types (expand) -->
<g id="edge2" class="edge">
<title>[root] aws_instance.instance&#45;1 (expand)&#45;&gt;[root] local.instance_types (expand)</title>
<path fill="none" stroke="black" d="M457.86,-215.52C443.09,-206.53 424.92,-195.47 409.06,-185.81"/>
<polygon fill="black" stroke="black" points="411.19,-183.02 400.83,-180.81 407.55,-189 411.19,-183.02"/>
</g>
<!-- [root] local.tags (expand) -->
<g id="node12" class="node">
<title>[root] local.tags (expand)</title>
<ellipse fill="none" stroke="black" cx="639.58" cy="-162" rx="105.09" ry="18"/>
<text text-anchor="middle" x="639.58" y="-156.95" font-family="Times,serif" font-size="14.00">[root] local.tags (expand)</text>
</g>
<!-- [root] aws_instance.instance&#45;1 (expand)&#45;&gt;[root] local.tags (expand) -->
<g id="edge3" class="edge">
<title>[root] aws_instance.instance&#45;1 (expand)&#45;&gt;[root] local.tags (expand)</title>
<path fill="none" stroke="black" d="M524.79,-215.52C545.63,-205.98 571.58,-194.11 593.54,-184.07"/>
<polygon fill="black" stroke="black" points="594.94,-187.27 602.57,-179.93 592.02,-180.91 594.94,-187.27"/>
</g>
<!-- [root] aws_instance.instance&#45;env (expand) -->
<g id="node2" class="node">
<title>[root] aws_instance.instance&#45;env (expand)</title>
<polygon fill="none" stroke="black" points="852.58,-252 692.58,-252 692.58,-216 852.58,-216 852.58,-252"/>
<text text-anchor="middle" x="772.58" y="-228.95" font-family="Times,serif" font-size="14.00">aws_instance.instance&#45;env</text>
</g>
<!-- [root] data.aws_ami.linux&#45;ami (expand) -->
<g id="node6" class="node">
<title>[root] data.aws_ami.linux&#45;ami (expand)</title>
<polygon fill="none" stroke="black" points="957.58,-108 809.58,-108 809.58,-72 957.58,-72 957.58,-108"/>
<text text-anchor="middle" x="883.58" y="-84.95" font-family="Times,serif" font-size="14.00">data.aws_ami.linux&#45;ami</text>
</g>
<!-- [root] aws_instance.instance&#45;env (expand)&#45;&gt;[root] data.aws_ami.linux&#45;ami (expand) -->
<g id="edge4" class="edge">
<title>[root] aws_instance.instance&#45;env (expand)&#45;&gt;[root] data.aws_ami.linux&#45;ami (expand)</title>
<path fill="none" stroke="black" d="M772.25,-215.6C772.74,-196.33 776.14,-165.2 791.58,-144 800.66,-131.53 813.63,-121.55 826.99,-113.76"/>
<polygon fill="black" stroke="black" points="828.28,-117.04 835.4,-109.2 824.94,-110.89 828.28,-117.04"/>
</g>
<!-- [root] var.instance_envs -->
<g id="node8" class="node">
<title>[root] var.instance_envs</title>
<polygon fill="none" stroke="black" points="906.58,-180 800.58,-180 800.58,-144 912.58,-144 912.58,-174 906.58,-180"/>
<polyline fill="none" stroke="black" points="906.58,-180 906.58,-174"/>
<polyline fill="none" stroke="black" points="912.58,-174 906.58,-174"/>
<text text-anchor="middle" x="856.58" y="-156.95" font-family="Times,serif" font-size="14.00">var.instance_envs</text>
</g>
<!-- [root] aws_instance.instance&#45;env (expand)&#45;&gt;[root] var.instance_envs -->
<g id="edge5" class="edge">
<title>[root] aws_instance.instance&#45;env (expand)&#45;&gt;[root] var.instance_envs</title>
<path fill="none" stroke="black" d="M793.34,-215.7C803.54,-207.2 816,-196.81 827.16,-187.51"/>
<polygon fill="black" stroke="black" points="829.16,-190.41 834.6,-181.32 824.68,-185.03 829.16,-190.41"/>
</g>
<!-- [root] aws_instance.myec2 (expand) -->
<g id="node3" class="node">
<title>[root] aws_instance.myec2 (expand)</title>
<polygon fill="none" stroke="black" points="1058.83,-180 930.33,-180 930.33,-144 1058.83,-144 1058.83,-180"/>
<text text-anchor="middle" x="994.58" y="-156.95" font-family="Times,serif" font-size="14.00">aws_instance.myec2</text>
</g>
<!-- [root] aws_instance.myec2 (expand)&#45;&gt;[root] data.aws_ami.linux&#45;ami (expand) -->
<g id="edge6" class="edge">
<title>[root] aws_instance.myec2 (expand)&#45;&gt;[root] data.aws_ami.linux&#45;ami (expand)</title>
<path fill="none" stroke="black" d="M966.86,-143.52C952.84,-134.68 935.65,-123.84 920.53,-114.3"/>
<polygon fill="black" stroke="black" points="922.56,-111.44 912.23,-109.07 918.82,-117.36 922.56,-111.44"/>
</g>
<!-- [root] aws_network_interface_sg_attachment.ec2_sgattach (expand) -->
<g id="node4" class="node">
<title>[root] aws_network_interface_sg_attachment.ec2_sgattach (expand)</title>
<polygon fill="none" stroke="black" points="1172.08,-252 871.08,-252 871.08,-216 1172.08,-216 1172.08,-252"/>
<text text-anchor="middle" x="1021.58" y="-228.95" font-family="Times,serif" font-size="14.00">aws_network_interface_sg_attachment.ec2_sgattach</text>
</g>
<!-- [root] aws_network_interface_sg_attachment.ec2_sgattach (expand)&#45;&gt;[root] aws_instance.myec2 (expand) -->
<g id="edge7" class="edge">
<title>[root] aws_network_interface_sg_attachment.ec2_sgattach (expand)&#45;&gt;[root] aws_instance.myec2 (expand)</title>
<path fill="none" stroke="black" d="M1014.91,-215.7C1012,-208.15 1008.51,-199.12 1005.26,-190.68"/>
<polygon fill="black" stroke="black" points="1008.59,-189.59 1001.72,-181.52 1002.05,-192.11 1008.59,-189.59"/>
</g>
<!-- [root] aws_security_group.sg_group (expand) -->
<g id="node5" class="node">
<title>[root] aws_security_group.sg_group (expand)</title>
<polygon fill="none" stroke="black" points="1255.95,-180 1077.2,-180 1077.2,-144 1255.95,-144 1255.95,-180"/>
<text text-anchor="middle" x="1166.58" y="-156.95" font-family="Times,serif" font-size="14.00">aws_security_group.sg_group</text>
</g>
<!-- [root] aws_network_interface_sg_attachment.ec2_sgattach (expand)&#45;&gt;[root] aws_security_group.sg_group (expand) -->
<g id="edge8" class="edge">
<title>[root] aws_network_interface_sg_attachment.ec2_sgattach (expand)&#45;&gt;[root] aws_security_group.sg_group (expand)</title>
<path fill="none" stroke="black" d="M1057.8,-215.52C1076.72,-206.38 1100.1,-195.09 1120.33,-185.33"/>
<polygon fill="black" stroke="black" points="1121.73,-188.54 1129.21,-181.04 1118.68,-182.24 1121.73,-188.54"/>
</g>
<!-- [root] provider[&quot;registry.terraform.io/hashicorp/aws&quot;] -->
<g id="node7" class="node">
<title>[root] provider[&quot;registry.terraform.io/hashicorp/aws&quot;]</title>
<polygon fill="none" stroke="black" points="934.58,-36 670.15,-18 934.58,0 1199.01,-18 934.58,-36"/>
<text text-anchor="middle" x="934.58" y="-12.95" font-family="Times,serif" font-size="14.00">provider[&quot;registry.terraform.io/hashicorp/aws&quot;]</text>
</g>
<!-- [root] aws_security_group.sg_group (expand)&#45;&gt;[root] provider[&quot;registry.terraform.io/hashicorp/aws&quot;] -->
<g id="edge9" class="edge">
<title>[root] aws_security_group.sg_group (expand)&#45;&gt;[root] provider[&quot;registry.terraform.io/hashicorp/aws&quot;]</title>
<path fill="none" stroke="black" d="M1138.13,-143.59C1095.63,-117.58 1015.65,-68.62 969.62,-40.44"/>
<polygon fill="black" stroke="black" points="971.7,-37.62 961.35,-35.38 968.05,-43.59 971.7,-37.62"/>
</g>
<!-- [root] var.sg_ports -->
<g id="node9" class="node">
<title>[root] var.sg_ports</title>
<polygon fill="none" stroke="black" points="1201.58,-108 1125.58,-108 1125.58,-72 1207.58,-72 1207.58,-102 1201.58,-108"/>
<polyline fill="none" stroke="black" points="1201.58,-108 1201.58,-102"/>
<polyline fill="none" stroke="black" points="1207.58,-102 1201.58,-102"/>
<text text-anchor="middle" x="1166.58" y="-84.95" font-family="Times,serif" font-size="14.00">var.sg_ports</text>
</g>
<!-- [root] aws_security_group.sg_group (expand)&#45;&gt;[root] var.sg_ports -->
<g id="edge10" class="edge">
<title>[root] aws_security_group.sg_group (expand)&#45;&gt;[root] var.sg_ports</title>
<path fill="none" stroke="black" d="M1166.58,-143.7C1166.58,-136.41 1166.58,-127.73 1166.58,-119.54"/>
<polygon fill="black" stroke="black" points="1170.08,-119.62 1166.58,-109.62 1163.08,-119.62 1170.08,-119.62"/>
</g>
<!-- [root] data.aws_ami.linux&#45;ami (expand)&#45;&gt;[root] provider[&quot;registry.terraform.io/hashicorp/aws&quot;] -->
<g id="edge11" class="edge">
<title>[root] data.aws_ami.linux&#45;ami (expand)&#45;&gt;[root] provider[&quot;registry.terraform.io/hashicorp/aws&quot;]</title>
<path fill="none" stroke="black" d="M896.19,-71.7C902.08,-63.61 909.22,-53.81 915.73,-44.87"/>
<polygon fill="black" stroke="black" points="918.52,-46.99 921.58,-36.85 912.86,-42.87 918.52,-46.99"/>
</g>
<!-- [root] local.ami (expand)&#45;&gt;[root] data.aws_ami.linux&#45;ami (expand) -->
<g id="edge12" class="edge">
<title>[root] local.ami (expand)&#45;&gt;[root] data.aws_ami.linux&#45;ami (expand)</title>
<path fill="none" stroke="black" d="M179.24,-149.01C192.01,-147.18 205.16,-145.43 217.58,-144 425.63,-120.1 671.49,-103.55 798.34,-95.87"/>
<polygon fill="black" stroke="black" points="798.22,-99.38 807.99,-95.29 797.8,-92.4 798.22,-99.38"/>
</g>
<!-- [root] provider[&quot;registry.terraform.io/hashicorp/aws&quot;] (close) -->
<g id="node13" class="node">
<title>[root] provider[&quot;registry.terraform.io/hashicorp/aws&quot;] (close)</title>
<ellipse fill="none" stroke="black" cx="772.58" cy="-306" rx="238.16" ry="18"/>
<text text-anchor="middle" x="772.58" y="-300.95" font-family="Times,serif" font-size="14.00">[root] provider[&quot;registry.terraform.io/hashicorp/aws&quot;] (close)</text>
</g>
<!-- [root] provider[&quot;registry.terraform.io/hashicorp/aws&quot;] (close)&#45;&gt;[root] aws_instance.instance&#45;1 (expand) -->
<g id="edge13" class="edge">
<title>[root] provider[&quot;registry.terraform.io/hashicorp/aws&quot;] (close)&#45;&gt;[root] aws_instance.instance&#45;1 (expand)</title>
<path fill="none" stroke="black" d="M704.44,-288.32C663.78,-278.37 611.88,-265.67 568.94,-255.16"/>
<polygon fill="black" stroke="black" points="569.95,-251.8 559.41,-252.83 568.29,-258.6 569.95,-251.8"/>
</g>
<!-- [root] provider[&quot;registry.terraform.io/hashicorp/aws&quot;] (close)&#45;&gt;[root] aws_instance.instance&#45;env (expand) -->
<g id="edge14" class="edge">
<title>[root] provider[&quot;registry.terraform.io/hashicorp/aws&quot;] (close)&#45;&gt;[root] aws_instance.instance&#45;env (expand)</title>
<path fill="none" stroke="black" d="M772.58,-287.7C772.58,-280.41 772.58,-271.73 772.58,-263.54"/>
<polygon fill="black" stroke="black" points="776.08,-263.62 772.58,-253.62 769.08,-263.62 776.08,-263.62"/>
</g>
<!-- [root] provider[&quot;registry.terraform.io/hashicorp/aws&quot;] (close)&#45;&gt;[root] aws_network_interface_sg_attachment.ec2_sgattach (expand) -->
<g id="edge15" class="edge">
<title>[root] provider[&quot;registry.terraform.io/hashicorp/aws&quot;] (close)&#45;&gt;[root] aws_network_interface_sg_attachment.ec2_sgattach (expand)</title>
<path fill="none" stroke="black" d="M832.54,-288.14C867.51,-278.31 911.87,-265.84 948.83,-255.45"/>
<polygon fill="black" stroke="black" points="949.4,-258.93 958.08,-252.85 947.51,-252.19 949.4,-258.93"/>
</g>
<!-- [root] root -->
<g id="node14" class="node">
<title>[root] root</title>
<ellipse fill="none" stroke="black" cx="772.58" cy="-378" rx="49.3" ry="18"/>
<text text-anchor="middle" x="772.58" y="-372.95" font-family="Times,serif" font-size="14.00">[root] root</text>
</g>
<!-- [root] root&#45;&gt;[root] provider[&quot;registry.terraform.io/hashicorp/aws&quot;] (close) -->
<g id="edge16" class="edge">
<title>[root] root&#45;&gt;[root] provider[&quot;registry.terraform.io/hashicorp/aws&quot;] (close)</title>
<path fill="none" stroke="black" d="M772.58,-359.7C772.58,-352.41 772.58,-343.73 772.58,-335.54"/>
<polygon fill="black" stroke="black" points="776.08,-335.62 772.58,-325.62 769.08,-335.62 776.08,-335.62"/>
</g>
</g>
</svg>
